<svg xmlns="http://www.w3.org/2000/svg" width="2500" height="2500" viewBox="2 2 41 41"><path fill="#FFF" d="M17 38c-1.103 0-2-.896-2-2V9c0-1.103.897-2 2-2h19c1.104 0 2 .897 2 2h2c1.104 0 2 .897 2 2v5c0 1.103-.896 2-2 2 1.104 0 2 .897 2 2v5a2 2 0 0 1-2 2 2 2 0 0 1 2 2v5a2 2 0 0 1-2 2h-2a2 2 0 0 1-2 2H17z"/><path fill="#80397B" d="M43 11c0-1.654-1.346-3-3-3h-1.171A3.005 3.005 0 0 0 36 6H17c-1.654 0-3 1.346-3 3v27c0 1.654 1.346 3 3 3h19a3.005 3.005 0 0 0 2.829-2H40c1.654 0 3-1.346 3-3v-5c0-.768-.29-1.469-.766-2A2.987 2.987 0 0 0 43 25v-5c0-.768-.29-1.469-.766-2A2.987 2.987 0 0 0 43 16v-5zm-2 23a1 1 0 0 1-1 1h-1v-7h1a1 1 0 0 1 1 1v5zm0-9a1 1 0 0 1-1 1h-1v-7h1a1 1 0 0 1 1 1v5zm0-9a1 1 0 0 1-1 1h-3v19a1 1 0 0 1-1 1H17a1 1 0 0 1-1-1V9a1 1 0 0 1 1-1h19a1 1 0 0 1 1 1v1h3a1 1 0 0 1 1 1v5z"/><g fill="#80397B"><path d="M23 11h10v2H23v-2zm0 6h10v-2H23v2zm0 4h10v-2H23v2zm0 4h10v-2H23v2zm0 4h10v-2H23v2zm0 4h10v-2H23v2z"/><path d="M23 11h10v2H23v-2zm0 6h10v-2H23v2zm0 4h10v-2H23v2zm0 4h10v-2H23v2zm0 4h10v-2H23v2zm0 4h10v-2H23v2z"/></g><path fill="#80397B" d="M26 2L2 7v31l24 5V2z"/><g opacity=".05"><linearGradient id="a" gradientUnits="userSpaceOnUse" x1="43.5" y1="-141.5" x2="67.5" y2="-141.5" gradientTransform="matrix(1 0 0 -1 -41.5 -119)"><stop offset="0" stop-color="#fff"/><stop offset="1"/></linearGradient><path fill="url(#a)" d="M26 2L2 7v31l24 5V2z"/></g><path fill="#FFF" d="M17.25 14v11.75c-.072-.152-6.25-11.5-6.25-11.5l-3 .25v15.743l3 .167s.012-11.806 0-11.96l5.908 12.346L20.5 31V13.5l-3.25.5z"/></svg>