<?xml version="1.0" encoding="UTF-8"?>
<svg id="Layer_1" data-name="Layer 1" xmlns="http://www.w3.org/2000/svg" version="1.1" viewBox="0 0 512 512">
  <defs>
    <style>
      .cls-1 {
        fill: #7719aa;
      }

      .cls-1, .cls-2, .cls-3, .cls-4, .cls-5, .cls-6, .cls-7, .cls-8, .cls-9 {
        stroke-width: 0px;
      }

      .cls-2 {
        fill: #9332bf;
      }

      .cls-3 {
        fill: #ca64ea;
      }

      .cls-4 {
        fill: none;
      }

      .cls-5 {
        fill-opacity: .2;
      }

      .cls-5, .cls-6, .cls-9 {
        fill: #000;
      }

      .cls-6 {
        fill-opacity: 0;
      }

      .cls-7 {
        fill: #ae4bd5;
      }

      .cls-8 {
        fill: #fff;
      }

      .cls-9 {
        fill-opacity: .3;
      }
    </style>
  </defs>
  <g>
    <path class="cls-3" d="M150.2,40.1h332c11.4,0,20.7,9.4,20.7,20.7v394.3c0,11.4-9.4,20.7-20.7,20.7H150.2c-11.4,0-20.8-9.4-20.8-20.7h0V60.9c0-11.4,9.4-20.7,20.8-20.7h0Z"/>
    <path class="cls-3" d="M503,60.9c0-11.4-9.4-20.7-20.7-20.7H150.2c-11.4,0-20.8,9.4-20.8,20.7v394.3c0,11.4,9.4,20.7,20.8,20.7h243.8l108.9-326.8V60.9Z"/>
    <path class="cls-7" d="M503,149.1h-108.9v108.9l54.5,49.7,54.5-49.7v-108.9Z"/>
    <path class="cls-2" d="M503,258h-108.9v108.9l54.5,52.8,54.5-52.8v-108.9Z"/>
    <path class="cls-1" d="M394.1,366.9h108.9v88.2c0,11.4-9.4,20.7-20.7,20.7h-88.2v-108.9Z"/>
    <path class="cls-6" d="M264.4,117.9h-134.9v295.7h134.9c11.4,0,20.7-9.4,20.7-20.7v-254.2c0-11.4-9.4-20.7-20.7-20.7h0Z"/>
    <path class="cls-5" d="M248.8,133.5h-119.3v295.7h119.3c11.4,0,20.7-9.4,20.7-20.7v-254.2c0-11.4-9.4-20.7-20.7-20.7h0Z"/>
    <path class="cls-9" d="M248.8,133.5h-119.3v264.6h119.3c11.4,0,20.7-9.4,20.7-20.7v-223.1c0-11.4-9.4-20.7-20.7-20.7h0Z"/>
    <path class="cls-5" d="M233.3,133.5h-103.8v264.6h103.8c11.4,0,20.7-9.4,20.7-20.7v-223.1c0-11.4-9.4-20.7-20.7-20.7h0Z"/>
    <path class="cls-1" d="M25.7,133.5h207.5c11.4,0,20.7,9.4,20.7,20.7v207.5c0,11.4-9.4,20.7-20.7,20.7H25.7c-11.4,0-20.7-9.4-20.7-20.7v-207.5c0-11.4,9.4-20.7,20.7-20.7h0Z"/>
    <path class="cls-8" d="M67.3,180.2h33.1l56.9,104.8c3,4.5,5.2,8.2,6.7,10.9h.4c-.8-6.9-1.1-13.8-1-20.6v-95h28.3v155.6h-31l-59.3-103.2c-2.3-3.4-4.3-7-6-10.7h-.5c.7,7.5,1,15.1.8,22.7v91.2h-28.4v-155.6Z"/>
  </g>
  <path class="cls-4" d="M5,9h498v498H5V9Z"/>
</svg>