<svg clip-rule="evenodd" fill-rule="evenodd" stroke-linejoin="round" stroke-miterlimit="1.41421" viewBox="0 0 512 512"
    xmlns="http://www.w3.org/2000/svg">
    <g fill-rule="nonzero">
        <path
            d="m234.166 103.75h146.667c5.028 0 9.166 4.139 9.166 9.166v174.168c0 5.027-4.138 9.166-9.166 9.166h-146.667c-5.028 0-9.167-4.139-9.167-9.166v-.001-174.167c0-5.027 4.138-9.166 9.167-9.166z"
            fill="#ca64ea" />
        <path
            d="m389.999 112.916c0-5.027-4.138-9.165-9.166-9.165h-.001-146.666c-5.029 0-9.167 4.138-9.167 9.165v174.168c0 5.027 4.138 9.166 9.167 9.166h107.707l48.126-144.374z"
            fill="#ca64ea" />
        <path d="m390 151.875h-48.125v48.125l24.063 21.965 24.062-21.965z" fill="#ae4bd5" />
        <path d="m390 200h-48.125v48.125l24.063 23.34 24.062-23.34z" fill="#9332bf" />
        <path d="m341.874 248.125h48.125v38.959c0 5.027-4.138 9.166-9.166 9.166h-38.959z" fill="#7719aa" />
        <path
            d="m284.584 138.125h-59.584v130.625h59.584c5.022-.014 9.152-4.144 9.166-9.166v-112.293c-.014-5.022-4.144-9.152-9.166-9.166z"
            fill-opacity=".094118" />
        <path
            d="m277.709 145h-52.709v130.625h52.709c5.022-.014 9.152-4.144 9.166-9.166v-112.293c-.014-5.022-4.144-9.152-9.166-9.166z"
            fill-opacity=".2" />
        <path
            d="m277.709 145h-52.709v116.875h52.709c5.022-.014 9.152-4.144 9.166-9.166v-98.543c-.014-5.022-4.144-9.152-9.166-9.166z"
            fill-opacity=".294118" />
        <path
            d="m270.834 145h-45.834v116.875h45.834c5.022-.014 9.152-4.144 9.166-9.166v-98.543c-.014-5.022-4.144-9.152-9.166-9.166z"
            fill-opacity=".2" />
        <path
            d="m179.166 145h91.668c5.027 0 9.166 4.139 9.166 9.166v91.668c0 5.027-4.138 9.166-9.166 9.166h-91.668c-5.027 0-9.166-4.139-9.166-9.166v-91.668c0-5.027 4.139-9.166 9.166-9.166z"
            fill="#7719aa" />
        <path
            d="m197.51 165.625h14.64l25.139 46.28c1.31 1.996 2.292 3.602 2.947 4.818h.187c-.354-3.027-.494-6.075-.422-9.121v-41.977h12.49v68.75h-13.705l-26.214-45.576c-1.009-1.504-1.901-3.084-2.667-4.724h-.234c.304 3.327.428 6.668.375 10.01v40.29h-12.536z"
            fill="#fff" />
    </g>
    <path d="m170 90h220v220h-220z" fill="none" />
</svg>